<?xml version="1.0" encoding="UTF-8" standalone="no"?>
<svg
   xmlns:dc="http://purl.org/dc/elements/1.1/"
   xmlns:cc="http://creativecommons.org/ns#"
   xmlns:rdf="http://www.w3.org/1999/02/22-rdf-syntax-ns#"
   xmlns:svg="http://www.w3.org/2000/svg"
   xmlns="http://www.w3.org/2000/svg"
   xmlns:sodipodi="http://sodipodi.sourceforge.net/DTD/sodipodi-0.dtd"
   xmlns:inkscape="http://www.inkscape.org/namespaces/inkscape"
   inkscape:version="1.0 (4035a4fb49, 2020-05-01)"
   sodipodi:docname="Archlinux-icon-crystal-64.svg"
   id="svg196"
   height="65px"
   version="1.1"
   viewBox="0 0 65 65"
   width="65px">
  <metadata
     id="metadata200">
    <rdf:RDF>
      <cc:Work
         rdf:about="">
        <dc:format>image/svg+xml</dc:format>
        <dc:type
           rdf:resource="http://purl.org/dc/dcmitype/StillImage" />
      </cc:Work>
    </rdf:RDF>
  </metadata>
  <sodipodi:namedview
     inkscape:current-layer="svg196"
     inkscape:window-maximized="0"
     inkscape:window-y="127"
     inkscape:window-x="421"
     inkscape:cy="39.315072"
     inkscape:cx="3.818182"
     inkscape:zoom="2.75"
     inkscape:guide-bbox="true"
     showguides="true"
     showgrid="false"
     id="namedview198"
     inkscape:window-height="629"
     inkscape:window-width="1306"
     inkscape:pageshadow="2"
     inkscape:pageopacity="0"
     guidetolerance="10"
     gridtolerance="10"
     objecttolerance="10"
     borderopacity="1"
     bordercolor="#666666"
     pagecolor="#ffffff">
    <sodipodi:guide
       id="guide204"
       orientation="0,-1"
       position="80,33" />
    <sodipodi:guide
       id="guide206"
       orientation="1,0"
       position="32,-19.363636" />
  </sodipodi:namedview>
  <defs
     id="defs189">
    <linearGradient
       y2="79.519%"
       x1="54.638%"
       x2="28.129%"
       y1="26.924%"
       id="lg">
      <stop
         id="stop184"
         offset="0"
         stop-opacity="0"
         stop-color="#fff" />
      <stop
         id="stop186"
         offset="1"
         stop-opacity=".27451"
         stop-color="#fff" />
    </linearGradient>
  </defs>
  <path
     style="stroke-width:1;fill:#000000"
     id="path191"
     fill="#1793d1"
     d="m 32.253,0.20991 c -2.849,6.9843001 -4.579,11.559 -7.75,18.336 1.944,2.061 4.334,4.453 8.211,7.164001 -4.168,-1.715001 -7.009,-3.432001 -9.133,-5.219001 -4.059,8.47 -10.423,20.531 -23.328,43.719 10.14,-5.853999 18.002,-9.465999 25.328,-10.843999 -0.314,-1.351001 -0.481,-2.819 -0.469,-4.344001 l 0.008,-0.32 c 0.161,-6.498 3.542,-11.495 7.547,-11.155999 4.004,0.338999 7.122,5.884 6.961,12.383 -0.031,1.223999 -0.173,2.4 -0.414,3.491999 7.247,1.418 15.034,5.013001 25.039,10.789 C 62.28,60.577911 60.513,57.304911 58.831,54.185911 56.182,52.13291 53.42,49.46191 47.784,46.56891 c 3.874,1.007001 6.65,2.171 8.812,3.469 -17.098,-31.835 -18.48,-36.068 -24.343,-49.828 v -9e-5 z" />
  <path
     d="m50.266 38.249c-13.872-18.827-17.087-34.002-17.902-37.625 7.4 17.067 7.349 17.277 17.902 37.625z"
     fill="#fff"
     fill-opacity=".16568"
     id="path2522" />
  <path
     style="fill:#000000"
     id="path194"
     fill="url(#lg)"
     d="m32.378 0.45992c-0.36 0.88448-0.7 1.7468-1.032 2.5625-0.364 0.8946-0.718 1.7565-1.062 2.5938s-0.693 1.6309-1.031 2.4375c-0.339 0.8065-0.654 1.6039-1 2.4063-0.346 0.802-0.726 1.613-1.094 2.437-0.368 0.825-0.752 1.658-1.156 2.532-0.404 0.873-0.828 1.801-1.282 2.75-0.061 0.128-0.124 0.276-0.187 0.406 1.939 2.054 4.33 4.427 8.187 7.125-4.167-1.715-7-3.432-9.125-5.219-0.11 0.226-0.198 0.425-0.312 0.656-0.42 0.871-0.871 1.733-1.344 2.688-0.113 0.224-0.196 0.427-0.312 0.656-0.501 1.004-1.026 2.043-1.594 3.156-0.113 0.22-0.228 0.402-0.344 0.625-0.343 0.667-1.44 2.77-2.562 4.907-0.655 1.248-1.169 2.27-1.907 3.656-0.209 0.398-0.639 1.195-0.75 1.406 8.125-4.573 16.891-11.216 32.813-5.531-0.797-1.51-1.562-2.919-2.25-4.25-0.688-1.332-1.312-2.571-1.906-3.75s-1.143-2.291-1.657-3.344c-0.513-1.053-0.989-2.047-1.437-3s-0.885-1.87-1.281-2.75c-0.397-0.879-0.766-1.73-1.125-2.562-0.359-0.833-0.695-1.658-1.032-2.469-0.336-0.8115-0.672-1.5896-1-2.4063-0.142-0.3554-0.263-0.7338-0.406-1.0938-0.888-2.0849-1.759-4.1515-2.812-6.625v0.00002z" />
  <circle
     r="43.16766"
     cy="32"
     cx="32"
     id="path208"
     style="fill:none" />
</svg>
